<svg width="150" height="150" viewBox="0 0 150 150" fill="none" xmlns="http://www.w3.org/2000/svg">
<path d="M26.2617 65.4007C26.1967 65.3399 26.1204 65.2925 26.0372 65.2612C25.9539 65.2299 25.8653 65.2153 25.7764 65.2183C25.6543 65.2187 25.5343 65.2495 25.4271 65.3079L13.4152 73.456C13.1371 73.6157 12.8909 73.8252 12.6888 74.0742C12.5458 74.2942 12.4765 74.554 12.491 74.8161V76.1638C12.4745 76.4221 12.5441 76.6786 12.6888 76.8933C12.8876 77.1454 13.1345 77.3555 13.4152 77.5115L25.4271 85.6441C25.5335 85.7048 25.6538 85.7368 25.7764 85.7368C25.9557 85.7415 26.1298 85.676 26.2617 85.5544C26.3948 85.4191 26.4701 85.2373 26.4718 85.0475V80.6551C26.4838 80.3716 26.3852 80.0945 26.1967 79.8823C25.9616 79.6503 25.7084 79.4373 25.4394 79.2456L20.2897 75.7928L19.789 75.459L25.424 71.6879C25.6937 71.4914 25.9469 71.2733 26.1813 71.0357C26.2757 70.9344 26.3488 70.8152 26.396 70.6851C26.4433 70.5549 26.4638 70.4166 26.4564 70.2784V65.886C26.4561 65.7052 26.3864 65.5315 26.2617 65.4007Z" fill="#D8CCC0"/>
<path d="M130.963 85.5578C131.028 85.6186 131.104 85.6659 131.188 85.6972C131.271 85.7285 131.359 85.7431 131.448 85.7401C131.57 85.7397 131.69 85.7089 131.798 85.6505L143.81 77.5025C144.088 77.3428 144.334 77.1332 144.536 76.8842C144.679 76.6642 144.748 76.4044 144.734 76.1424L144.734 74.7947C144.75 74.5363 144.681 74.2798 144.536 74.0652C144.337 73.813 144.09 73.6029 143.81 73.447L131.798 65.3144C131.691 65.2537 131.571 65.2217 131.448 65.2217C131.269 65.217 131.095 65.2824 130.963 65.404C130.83 65.5394 130.755 65.7211 130.753 65.911L130.753 70.3034C130.741 70.5869 130.839 70.864 131.028 71.0761C131.263 71.3082 131.516 71.5211 131.785 71.7129L136.935 75.1656L137.436 75.4994L131.801 79.2705C131.531 79.4671 131.278 79.6852 131.043 79.9228C130.949 80.024 130.876 80.1432 130.829 80.2734C130.781 80.4035 130.761 80.5418 130.768 80.6801L130.768 85.0725C130.769 85.2532 130.838 85.4269 130.963 85.5578Z" fill="#D8CCC0"/>
<path d="M128.078 62.1582C128.075 62.1253 128.064 62.0936 128.047 62.0654C128.03 61.9458 127.971 61.8362 127.88 61.7563C127.815 61.6913 127.736 61.6404 127.65 61.6069C127.564 61.5734 127.472 61.558 127.38 61.5616H123.411C123.105 61.5491 122.803 61.6351 122.55 61.8071C122.297 61.979 122.105 62.2278 122.004 62.5167L111.278 88.4353C111.233 88.5248 111.207 88.6227 111.201 88.7228C111.199 88.8691 111.253 89.0106 111.352 89.1184C111.362 89.159 111.383 89.1957 111.414 89.2235C111.48 89.289 111.558 89.3403 111.644 89.3744C111.73 89.4084 111.822 89.4244 111.915 89.4213H115.822C116.129 89.4381 116.433 89.3538 116.688 89.1813C116.942 89.0088 117.133 88.7576 117.232 88.4662L128.032 62.5446C128.073 62.4544 128.094 62.3563 128.094 62.2571C128.096 62.2234 128.091 62.1895 128.078 62.1582Z" fill="#D8CCC0"/>
<path d="M87.6749 31.9801C87.205 31.7854 86.7476 31.603 86.2654 31.4207C81.6881 29.6367 76.8169 28.7266 71.9043 28.7376C49.8032 28.7376 31.8348 46.7214 31.8348 68.8071C31.8348 71.3387 32.079 73.3973 32.5643 75.051C33.1238 76.9582 34.0171 78.2904 35.2752 79.1714C36.4398 79.9443 37.8162 80.3354 39.2132 80.2904C42.3197 80.2904 46.1681 78.853 50.6501 77.1715C52.8139 76.3678 55.1353 75.4899 57.6205 74.7172V109.816C57.6247 110.631 57.8274 111.432 58.2109 112.15C58.2203 112.157 58.228 112.167 58.2333 112.177C58.2387 112.188 58.2416 112.2 58.2418 112.212C59.4535 114.406 62.3004 115.967 65.5892 115.967H78.2224C82.6148 115.967 86.1912 113.185 86.1912 109.816V74.7172C88.664 75.4899 91.007 76.3678 93.143 77.1715C99.7795 79.6443 105.022 81.6102 108.536 79.1714C110.883 77.5331 111.974 74.2473 111.974 68.8071C111.963 60.9664 109.655 53.3006 105.337 46.7561C101.019 40.2116 94.879 35.0749 87.6749 31.9801ZM34.8517 68.8194C34.9409 59.0548 38.8825 49.7204 45.8189 42.8471C52.7553 35.9737 62.1253 32.1176 71.8904 32.1176C81.6554 32.1176 91.0254 35.9737 97.9618 42.8471C104.898 49.7204 108.84 59.0548 108.929 68.8194C108.929 73.0635 108.203 75.7125 106.793 76.6986C104.568 78.2286 99.764 76.4265 94.1908 74.3493C91.4089 73.3046 88.3426 72.1547 85.0382 71.215C84.3427 71.0017 83.6441 70.8194 82.9332 70.6401C82.6457 70.5628 82.3428 70.4886 82.0553 70.4268C75.3956 68.6869 68.4006 68.6869 61.7409 70.4268C61.4318 70.4886 61.1227 70.5628 60.8476 70.6401C60.1335 70.8194 59.438 71.0017 58.7394 71.215C55.4382 72.1423 52.3471 73.3046 49.5744 74.3493C44.0105 76.4265 39.1977 78.2286 36.9876 76.6986C36.3694 76.2596 35.8841 75.5167 35.5317 74.4699C35.0774 73.0789 34.8517 71.1872 34.8517 68.8194ZM60.6343 109.591V73.8084C61.1659 73.6569 61.6945 73.5209 62.2385 73.3973C65.3934 72.5937 68.6334 72.1723 71.8888 72.1423C75.1504 72.1716 78.3962 72.5982 81.5546 73.4128C82.0862 73.5333 82.6148 73.6724 83.1465 73.8239V109.591C83.1465 111.77 80.9333 113.544 78.2008 113.544H65.5738C63.6326 113.544 61.9356 112.635 61.1505 111.331C60.8159 110.812 60.6368 110.208 60.6343 109.591Z" fill="#D8CCC0"/>
<path d="M63.4904 76.2102C63.4904 75.7919 63.1514 75.4529 62.7331 75.4529C62.3149 75.4529 61.9758 75.7919 61.9758 76.2102V84.7353C61.9758 85.1536 62.3149 85.4926 62.7331 85.4926C63.1514 85.4926 63.4904 85.1536 63.4904 84.7353V76.2102Z" fill="#D8CCC0"/>
<path d="M81.6288 98.8151C81.6288 98.3969 81.2898 98.0578 80.8715 98.0578C80.4533 98.0578 80.1142 98.3969 80.1142 98.8151V104.852C80.1142 105.27 80.4533 105.609 80.8715 105.609C81.2898 105.609 81.6288 105.27 81.6288 104.852V98.8151Z" fill="#D8CCC0"/>
<path d="M80.8715 97.0315C81.288 97.0315 81.6257 96.6939 81.6257 96.2773C81.6257 95.8608 81.288 95.5231 80.8715 95.5231C80.4549 95.5231 80.1172 95.8608 80.1172 96.2773C80.1172 96.6939 80.4549 97.0315 80.8715 97.0315Z" fill="#D8CCC0"/>
<path d="M40.4434 76.0247C39.6041 76.047 38.7826 75.7808 38.1159 75.2705C35.9336 73.558 36.3231 69.5829 36.3416 69.416C36.3572 69.2664 36.4315 69.1291 36.5484 69.0343C36.6652 68.9395 36.8148 68.895 36.9645 68.9106C37.1141 68.9262 37.2514 69.0006 37.3461 69.1174C37.4409 69.2342 37.4854 69.3838 37.4698 69.5335C37.4698 69.5675 37.1298 73.0542 38.8175 74.3772C39.6367 75.0201 40.8576 75.0541 42.4557 74.4823C42.5954 74.4399 42.746 74.4528 42.8764 74.5184C43.0068 74.584 43.107 74.6972 43.1563 74.8346C43.2055 74.972 43.2 75.1231 43.141 75.2566C43.0819 75.3901 42.9738 75.4958 42.839 75.5518C42.0734 75.8453 41.2631 76.0053 40.4434 76.0247Z" fill="#D8CCC0"/>
<path d="M103.501 53.6732C103.412 53.6562 103.33 53.6166 103.261 53.5581C103.192 53.4996 103.14 53.4242 103.109 53.3394C101.777 49.4838 99.2245 46.1675 95.8385 43.8931C95.7828 43.8592 95.7346 43.8143 95.6969 43.7612C95.6591 43.708 95.6326 43.6477 95.619 43.584C95.6097 43.5256 95.6128 43.466 95.6283 43.409C95.6438 43.352 95.6711 43.2989 95.7086 43.2532C95.7949 43.1567 95.9132 43.0947 96.0417 43.0788C96.1701 43.0629 96.3 43.0941 96.4072 43.1667C97.3345 43.7571 102.045 47.0181 104.082 53.1199C104.102 53.1785 104.109 53.2407 104.102 53.3021C104.095 53.3636 104.075 53.4227 104.042 53.4754C104.004 53.5347 103.953 53.5849 103.893 53.6223C103.833 53.6597 103.766 53.6834 103.696 53.6918C103.63 53.6966 103.565 53.6903 103.501 53.6732Z" fill="#D8CCC0"/>
<path d="M37.068 68.2599C37.4231 68.2599 37.7109 67.9721 37.7109 67.617C37.7109 67.2619 37.4231 66.9741 37.068 66.9741C36.7129 66.9741 36.425 67.2619 36.425 67.617C36.425 67.9721 36.7129 68.2599 37.068 68.2599Z" fill="#D8CCC0"/>
<path d="M103.962 55.3146C104.293 55.3146 104.561 55.0461 104.561 54.7149C104.561 54.3837 104.293 54.1152 103.962 54.1152C103.63 54.1152 103.362 54.3837 103.362 54.7149C103.362 55.0461 103.63 55.3146 103.962 55.3146Z" fill="#D8CCC0"/>
<path d="M67.7994 111.3C67.7636 111.126 67.6651 110.971 67.5226 110.865C67.3801 110.759 67.2035 110.709 67.0266 110.725C66.4084 110.818 64.8907 110.907 63.9664 110.076C63.8735 109.99 63.7924 109.892 63.7253 109.785C63.314 109.227 63.1195 108.538 63.1782 107.847V107.634C63.1875 107.455 63.1257 107.28 63.0064 107.147C62.8871 107.014 62.72 106.933 62.5414 106.923C62.4491 106.915 62.356 106.925 62.2678 106.954C62.1796 106.983 62.0981 107.029 62.0283 107.09C61.9572 107.147 61.8987 107.218 61.8567 107.299C61.8146 107.38 61.7899 107.469 61.7841 107.56C61.7067 108.507 61.9133 109.456 62.3776 110.286C62.5461 110.603 62.7714 110.886 63.0422 111.121C64.0283 111.983 65.345 112.165 66.2693 112.165C66.5794 112.166 66.8893 112.145 67.1966 112.104C67.2904 112.097 67.3816 112.069 67.463 112.022C67.5444 111.975 67.614 111.91 67.6664 111.832C67.7008 111.784 67.7308 111.733 67.7561 111.68C67.7936 111.557 67.8082 111.428 67.7994 111.3Z" fill="#D8CCC0"/>
<path d="M63.8119 34.8177C63.7781 34.8869 63.7277 34.9466 63.6651 34.9914C63.6025 35.0361 63.5297 35.0647 63.4533 35.0743C58.4025 35.4761 54.9096 38.527 54.242 39.1452C54.2017 39.1854 54.1532 39.2164 54.0999 39.2361C54.0465 39.2559 53.9896 39.2639 53.9329 39.2596C53.8849 39.2561 53.8383 39.2414 53.797 39.2167C53.7557 39.192 53.7207 39.158 53.6949 39.1174C53.6406 39.0214 53.6211 38.9096 53.6397 38.801C53.6583 38.6923 53.7138 38.5933 53.7969 38.5208C54.4893 37.8779 58.2047 34.6508 63.5059 34.2366C63.5561 34.2313 63.6069 34.2384 63.6538 34.2572C63.7007 34.2761 63.7422 34.3062 63.7748 34.3448C63.8124 34.391 63.8395 34.4447 63.8545 34.5023C63.8694 34.5599 63.8718 34.62 63.8614 34.6786C63.8511 34.727 63.8345 34.7738 63.8119 34.8177Z" fill="#D8CCC0"/>
</svg>
